# xmcd
#
# Track frame offsets:
# 150
# 14210
# 35797
# 51805
# 67215
# 88582
# 103927
# 127145
# 150237
# 168535
# 188287
# 201270
#
# Disc length: 2970 seconds
#
#
# Revision: 0
# Processed by: cddbd v1.5PL3 Copyright (c) Steve Scherf et al.
# Submitted via: FreeRIP 2.53 
#
DISCID=ac0b980c
DTITLE=Jackson Code, The - Draggin' The River
DYEAR=1900
DGENRE=Blues
TTITLE0=Til Our Teeth Got Sore
TTITLE1=The Shiver Waiting To Crawl Up My Spine
TTITLE2=Who's Watching Who
TTITLE3=Blood And Bones
TTITLE4=A Blessing For One Is A Curse For Another
TTITLE5=Poison Berries
TTITLE6=Nail It (You Better Get Your Voodoo Right)
TTITLE7=Everybody's Got Someone To Lose
TTITLE8=Let Them Hang
TTITLE9=Her's Fell Upon Me
TTITLE10=I Snuck Up On You
TTITLE11=All This Damage Reminds Me Of Me
EXTD=
EXTT0=
EXTT1=
EXTT2=
EXTT3=
EXTT4=
EXTT5=
EXTT6=
EXTT7=
EXTT8=
EXTT9=
EXTT10=
EXTT11=
PLAYORDER=
